
<svg width="128" height="32" viewBox="0 0 128 32" fill="none" xmlns="http://www.w3.org/2000/svg">
  <path d="M15.8 7.6C20.4 7.6 24 11.2 24 15.8C24 20.4 20.4 24 15.8 24C11.2 24 7.6 20.4 7.6 15.8C7.6 11.2 11.2 7.6 15.8 7.6Z" fill="#FF6635"/>
  <path d="M36.4 21.2V11.6H39.2C40.4 11.6 41.2 11.8 41.8 12.2C42.4 12.6 42.6 13.2 42.6 14C42.6 14.6 42.4 15 42.2 15.4C41.8 15.8 41.4 16 40.8 16C41.4 16 42 16.2 42.4 16.6C42.8 17 43 17.6 43 18.2C43 19 42.8 19.8 42.2 20.2C41.6 20.8 40.8 21 39.6 21H36.4V21.2ZM38.4 15.4H39.4C39.8 15.4 40.2 15.4 40.4 15.2C40.6 15 40.8 14.8 40.8 14.4C40.8 14 40.6 13.8 40.4 13.6C40.2 13.4 39.8 13.4 39.4 13.4H38.4V15.4ZM38.4 19.4H39.6C40 19.4 40.4 19.4 40.6 19.2C40.8 19 41 18.8 41 18.4C41 18 40.8 17.8 40.6 17.6C40.4 17.4 40 17.4 39.6 17.4H38.4V19.4Z" fill="#000000"/>
  <path d="M49.8 21.4C48.6 21.4 47.6 21 46.8 20.4C46 19.6 45.6 18.8 45.6 17.6C45.6 16.4 46 15.6 46.8 14.8C47.6 14 48.6 13.6 49.8 13.6C51 13.6 52 14 52.8 14.8C53.6 15.6 54 16.4 54 17.6C54 18.8 53.6 19.6 52.8 20.4C52 21 51 21.4 49.8 21.4ZM49.8 19.6C50.4 19.6 51 19.4 51.4 19C51.8 18.6 52 18.2 52 17.6C52 17 51.8 16.6 51.4 16.2C51 15.8 50.4 15.6 49.8 15.6C49.2 15.6 48.6 15.8 48.2 16.2C47.8 16.6 47.6 17 47.6 17.6C47.6 18.2 47.8 18.6 48.2 19C48.6 19.4 49.2 19.6 49.8 19.6Z" fill="#000000"/>
  <path d="M59.6 21.4C58.6 21.4 57.8 21.2 57.2 20.8C56.6 20.4 56.2 19.8 56 19L57.8 18.4C58 19.2 58.6 19.6 59.6 19.6C60 19.6 60.2 19.6 60.4 19.4C60.6 19.2 60.6 19.2 60.6 19C60.6 18.8 60.6 18.6 60.4 18.6C60.2 18.4 59.8 18.2 59.4 18.2L58.2 17.8C57.4 17.6 56.8 17.4 56.4 17C56 16.6 56 16 56 15.6C56 15 56.2 14.4 56.8 14C57.4 13.6 58 13.4 58.8 13.4C59.6 13.4 60.4 13.6 61 14C61.6 14.4 62 14.8 62.2 15.4L60.4 16C60.2 15.4 59.8 15.2 59 15.2C58.6 15.2 58.4 15.2 58.2 15.4C58 15.6 58 15.6 58 15.8C58 16 58 16 58.2 16.2C58.4 16.2 58.6 16.4 59 16.4L60.2 16.8C61 17 61.6 17.2 62 17.6C62.4 18 62.6 18.6 62.6 19.2C62.6 19.8 62.4 20.4 61.8 20.8C61.2 21.2 60.4 21.4 59.6 21.4Z" fill="#000000"/>
  <path d="M68.6 21.4C67.6 21.4 66.8 21.2 66.2 20.8C65.6 20.4 65.2 19.8 65 19L66.8 18.4C67 19.2 67.6 19.6 68.6 19.6C69 19.6 69.2 19.6 69.4 19.4C69.6 19.2 69.6 19.2 69.6 19C69.6 18.8 69.6 18.6 69.4 18.6C69.2 18.4 68.8 18.2 68.4 18.2L67.2 17.8C66.4 17.6 65.8 17.4 65.4 17C65 16.6 65 16 65 15.6C65 15 65.2 14.4 65.8 14C66.4 13.6 67 13.4 67.8 13.4C68.6 13.4 69.4 13.6 70 14C70.6 14.4 71 14.8 71.2 15.4L69.4 16C69.2 15.4 68.8 15.2 68 15.2C67.6 15.2 67.4 15.2 67.2 15.4C67 15.6 67 15.6 67 15.8C67 16 67 16 67.2 16.2C67.4 16.2 67.6 16.4 68 16.4L69.2 16.8C70 17 70.6 17.2 71 17.6C71.4 18 71.6 18.6 71.6 19.2C71.6 19.8 71.4 20.4 70.8 20.8C70.2 21.2 69.6 21.4 68.6 21.4Z" fill="#000000"/>
  <path d="M77.4 21.2L75.2 17.6L74.4 18.6V21.2H72.4V11.2H74.4V16.2L77 13.8H79.4L76.8 16.6L79.6 21.2H77.4Z" fill="#000000"/>
  <path d="M84.4 21.4C83.2 21.4 82.2 21 81.4 20.2C80.6 19.4 80.2 18.6 80.2 17.4C80.2 16.2 80.6 15.4 81.4 14.6C82.2 13.8 83.2 13.4 84.4 13.4C85.6 13.4 86.6 13.8 87.4 14.6C88.2 15.4 88.6 16.2 88.6 17.4C88.6 18.6 88.2 19.4 87.4 20.2C86.6 21 85.6 21.4 84.4 21.4ZM84.4 19.6C85 19.6 85.6 19.4 86 19C86.4 18.6 86.6 18 86.6 17.4C86.6 16.8 86.4 16.2 86 15.8C85.6 15.4 85 15.2 84.4 15.2C83.8 15.2 83.2 15.4 82.8 15.8C82.4 16.2 82.2 16.8 82.2 17.4C82.2 18 82.4 18.6 82.8 19C83.2 19.4 83.8 19.6 84.4 19.6Z" fill="#000000"/>
  <path d="M94.8 21.2V19.4C94.2 20.6 93 21.2 91.4 21.2H91V19.2H91.4C92 19.2 92.6 19 93 18.6C93.4 18.2 93.6 17.6 93.6 16.8V13.8H95.6V18.2C95.6 18.8 95.6 19.2 95.8 19.6C96 20 96.4 20.2 97 20.2C97.4 20.2 97.8 20 98 19.6C98.2 19.2 98.4 18.8 98.4 18.2V13.8H100.4V21.2H98.4V19.6C97.8 20.8 96.8 21.4 95.2 21.4H94.8V21.2Z" fill="#000000"/>
  <path d="M107.2 21.2V19.8C106.6 20.8 105.6 21.4 104.2 21.4C103.2 21.4 102.4 21.2 101.8 20.6C101.2 20 100.8 19.4 100.8 18.4C100.8 17.4 101.2 16.8 101.8 16.2C102.4 15.6 103.2 15.4 104.2 15.4H107V15C107 14.6 106.8 14.2 106.6 14C106.4 13.8 106 13.6 105.4 13.6C105 13.6 104.6 13.8 104.2 13.8C103.8 14 103.6 14.2 103.6 14.6L101.6 14C102 12.8 103.2 12.2 105 12.2C106.2 12.2 107 12.4 107.6 13C108.2 13.6 108.6 14.4 108.6 15.4V21.2H107.2ZM104.8 19.8C105.4 19.8 105.8 19.6 106.2 19.2C106.6 18.8 106.8 18.4 106.8 17.8V17H104.4C104 17 103.8 17 103.6 17.2C103.4 17.4 103.2 17.6 103.2 17.8C103.2 18 103.4 18.2 103.6 18.4C103.8 18.6 104.2 18.6 104.6 18.6C104.6 19.8 104.6 19.8 104.8 19.8Z" fill="#000000"/>
  <path d="M114.8 21.4C113.6 21.4 112.6 21 111.8 20.2C111 19.4 110.6 18.6 110.6 17.4C110.6 16.2 111 15.4 111.8 14.6C112.6 13.8 113.6 13.4 114.8 13.4C115.8 13.4 116.6 13.6 117.2 14.2C117.8 14.8 118.2 15.4 118.4 16.2L116.6 16.8C116.4 16 115.8 15.6 114.8 15.6C114.2 15.6 113.6 15.8 113.2 16.2C112.8 16.6 112.6 17 112.6 17.6C112.6 18.2 112.8 18.6 113.2 19C113.6 19.4 114.2 19.6 114.8 19.6C115.8 19.6 116.4 19.2 116.6 18.4L118.4 19C118.2 19.8 117.8 20.4 117.2 21C116.6 21.2 115.8 21.4 114.8 21.4Z" fill="#000000"/>
  <path d="M124.8 21.2L121.6 13.8H123.8L125.6 18.6L127.4 13.8H129.4L126.2 21.2H124.8Z" fill="#000000"/>
</svg>
